<svg xmlns="http://www.w3.org/2000/svg" xmlns:xlink="http://www.w3.org/1999/xlink" xmlns:svgjs="http://svgjs.com/svgjs" width="512" height="512" x="0" y="0" viewBox="0 0 480 480" style="enable-background:new 0 0 512 512" xml:space="preserve" class=""><g><path xmlns="http://www.w3.org/2000/svg" d="m8 376c0 17.671875 14.328125 32 32 32h400c17.671875 0 32-14.328125 32-32v-16h-464zm0 0" fill="#e2efff" data-original="#9bc9ff" style="" class=""></path><path xmlns="http://www.w3.org/2000/svg" d="m216 408h48v64h-48zm0 0" fill="#e2efff" data-original="#9bc9ff" style="" class=""></path><path xmlns="http://www.w3.org/2000/svg" d="m288 8c-8.039062-.007812-16.066406.632812-24 1.921875-60.796875 9.742187-109.707031 55.203125-123.867188 115.125-14.160156 59.917969 9.226563 122.464844 59.226563 158.394531l-71.359375 28.558594h160c83.949219 0 152-68.050781 152-152s-68.050781-152-152-152zm0 0" fill="#e2efff" data-original="#9bc9ff" style="" class=""></path><g xmlns="http://www.w3.org/2000/svg" fill="#1e81ce"><path d="m440 80h-13.648438c-28.542968-49.4375-81.265624-79.9257812-138.351562-80-57.199219.0351562-110.058594 30.515625-138.742188 80h-109.257812c-22.082031.027344-39.9726562 17.917969-40 40v256c.0273438 22.082031 17.917969 39.972656 40 40h168v48h-112c-4.417969 0-8 3.582031-8 8s3.582031 8 8 8h288c4.417969 0 8-3.582031 8-8s-3.582031-8-8-8h-112v-48h168c22.082031-.027344 39.972656-17.917969 40-40v-256c-.027344-22.082031-17.917969-39.972656-40-40zm-174.710938-62.183594c7.507813-1.214844 15.105469-1.820312 22.710938-1.816406 79.527344 0 144 64.472656 144 144s-64.472656 144-144 144h-118.480469l32.800781-13.136719c2.710938-1.085937 4.613282-3.566406 4.964844-6.464843.347656-2.902344-.910156-5.761719-3.285156-7.460938-47.367188-34.046875-69.515625-93.304688-56.09375-150.070312 13.421875-56.765626 59.765625-99.828126 117.367188-109.050782zm-225.289062 78.183594h101.320312c-28.007812 64.300781-10.902343 139.347656 42.207032 185.160156l-58.503906 23.414063c-3.554688 1.429687-5.601563 5.179687-4.875 8.941406.726562 3.761719 4.019531 6.480469 7.851562 6.484375h160c53.992188.0625 104.363281-27.140625 133.921875-72.320312 29.558594-45.183594 34.304687-102.234376 12.621094-151.679688h5.457031c13.253906 0 24 10.746094 24 24v232h-448v-232c0-13.253906 10.746094-24 24-24zm216 368h-32v-48h32zm184-64h-400c-13.253906 0-24-10.746094-24-24v-8h448v8c0 13.253906-10.746094 24-24 24zm0 0" fill="#4054b2" data-original="#1e81ce" style="" class=""></path><path d="m200 128h8v120c0 4.417969 3.582031 8 8 8h144c4.417969 0 8-3.582031 8-8v-120h8c4.417969 0 8-3.582031 8-8v-48c0-4.417969-3.582031-8-8-8h-68.6875l10.34375-10.34375c2.078125-2.007812 2.914062-4.984375 2.179688-7.78125-.730469-2.796875-2.914063-4.980469-5.710938-5.710938-2.796875-.734374-5.773438.101563-7.78125 2.179688l-18.34375 18.34375-18.34375-18.34375c-2.007812-2.078125-4.984375-2.914062-7.78125-2.179688-2.796875.730469-4.980469 2.914063-5.710938 5.710938-.734374 2.796875.101563 5.773438 2.179688 7.78125l10.34375 10.34375h-68.6875c-4.417969 0-8 3.582031-8 8v48c0 4.417969 3.582031 8 8 8zm24 0h56v112h-56zm128 112h-56v-112h56zm16-128h-72v-32h72zm-160-32h72v32h-72zm0 0" fill="#4054b2" data-original="#1e81ce" style="" class=""></path><path d="m40 176c4.417969 0 8-3.582031 8-8v-40h40c4.417969 0 8-3.582031 8-8s-3.582031-8-8-8h-48c-4.417969 0-8 3.582031-8 8v48c0 4.417969 3.582031 8 8 8zm0 0" fill="#4054b2" data-original="#1e81ce" style="" class=""></path><path d="m40 336h48c4.417969 0 8-3.582031 8-8s-3.582031-8-8-8h-40v-40c0-4.417969-3.582031-8-8-8s-8 3.582031-8 8v48c0 4.417969 3.582031 8 8 8zm0 0" fill="#4054b2" data-original="#1e81ce" style="" class=""></path></g></g></svg>